<?xml version="1.0" standalone="no"?><!DOCTYPE svg PUBLIC "-//W3C//DTD SVG 1.1//EN" "http://www.w3.org/Graphics/SVG/1.1/DTD/svg11.dtd"><svg t="1606110593066" class="icon" viewBox="0 0 1024 1024" version="1.1" xmlns="http://www.w3.org/2000/svg" p-id="2742" xmlns:xlink="http://www.w3.org/1999/xlink" width="64" height="64"><defs><style type="text/css"></style></defs><path d="M315.0848 551.3728H157.5424C70.8864 551.3728 0 622.2848 0 708.9152v157.5424C0 953.1136 70.912 1024 157.5424 1024h157.5424c86.6304 0 157.5424-70.912 157.5424-157.5424v-157.5424c0-86.6304-70.912-157.5424-157.5424-157.5424z m78.7712 315.0848a79.0016 79.0016 0 0 1-78.7712 78.7712H157.5424a79.0016 79.0016 0 0 1-78.7712-78.7712v-157.5424a79.0016 79.0016 0 0 1 78.7712-78.7712h157.5424a79.0016 79.0016 0 0 1 78.7712 78.7712v157.5424zM866.4576 0h-157.5424c-86.6304 0-157.5424 70.912-157.5424 157.5424v157.5424c0 86.6304 70.912 157.5424 157.5424 157.5424h157.5424c86.656 0 157.5424-70.912 157.5424-157.5424V157.5424C1024 70.8864 953.088 0 866.4576 0z m78.7712 315.0848a79.0016 79.0016 0 0 1-78.7712 78.7712h-157.5424a79.0016 79.0016 0 0 1-78.7712-78.7712V157.5424a79.0016 79.0016 0 0 1 78.7712-78.7712h157.5424a79.0016 79.0016 0 0 1 78.7712 78.7712v157.5424z m-78.7712 236.288h-157.5424c-86.6304 0-157.5424 70.912-157.5424 157.5424v157.5424c0 86.656 70.912 157.5424 157.5424 157.5424h157.5424C953.1136 1024 1024 953.088 1024 866.4576v-157.5424c0-86.6304-70.912-157.5424-157.5424-157.5424z m78.7712 315.0848a79.0016 79.0016 0 0 1-78.7712 78.7712h-157.5424a79.0016 79.0016 0 0 1-78.7712-78.7712v-157.5424a79.0016 79.0016 0 0 1 78.7712-78.7712h157.5424a79.0016 79.0016 0 0 1 78.7712 78.7712v157.5424zM315.0848 0H157.5424C70.8864 0 0 70.912 0 157.5424v157.5424c0 86.6304 70.912 157.5424 157.5424 157.5424h157.5424c86.6304 0 157.5424-70.912 157.5424-157.5424V157.5424c0-86.656-70.912-157.5424-157.5424-157.5424z m78.7712 315.0848a79.0016 79.0016 0 0 1-78.7712 78.7712H157.5424a79.0016 79.0016 0 0 1-78.7712-78.7712V157.5424a79.0016 79.0016 0 0 1 78.7712-78.7712h157.5424a79.0016 79.0016 0 0 1 78.7712 78.7712v157.5424z" fill="#ef167a" p-id="2743"></path></svg>