<?xml version="1.0" standalone="no"?><!DOCTYPE svg PUBLIC "-//W3C//DTD SVG 1.1//EN" "http://www.w3.org/Graphics/SVG/1.1/DTD/svg11.dtd"><svg t="1606111037483" class="icon" viewBox="0 0 1070 1024" version="1.1" xmlns="http://www.w3.org/2000/svg" p-id="5623" xmlns:xlink="http://www.w3.org/1999/xlink" width="66.875" height="64"><defs><style type="text/css"></style></defs><path d="M925.696 276.456727A69.585455 69.585455 0 0 0 876.334545 256H195.421091l69.585454 418.792727 589.149091-3.211636c20.433455 0 43.985455-25.134545 52.829091-67.537455l38.469818-268.334545a69.818182 69.818182 0 0 0-19.758545-59.252364zM187.717818 209.454545h688.616727a116.363636 116.363636 0 0 1 115.2 132.887273l-38.679272 269.684364c-12.567273 62.789818-52.875636 106.100364-98.699637 106.100363l-581.422545 3.188364 12.241454 73.774546a23.272727 23.272727 0 0 0 22.970182 19.456H837.818182c1.396364 0 2.722909 0.116364 4.049454 0.34909A81.454545 81.454545 0 1 1 775.842909 861.090909H341.248a81.454545 81.454545 0 1 1-97.745455-42.914909 69.888 69.888 0 0 1-4.421818-15.453091L137.472 191.348364a23.272727 23.272727 0 0 0-18.757818-19.083637L65.629091 162.536727a23.272727 23.272727 0 1 1 8.378182-45.800727l53.131636 9.751273a69.818182 69.818182 0 0 1 56.273455 57.250909L187.694545 209.454545zM849.454545 930.909091a34.909091 34.909091 0 1 0 0-69.818182 34.909091 34.909091 0 0 0 0 69.818182z m-581.818181 0a34.909091 34.909091 0 1 0 0-69.818182 34.909091 34.909091 0 0 0 0 69.818182zM162.909091 209.454545h713.425454a116.363636 116.363636 0 0 1 115.2 132.887273l-38.679272 269.661091c-12.567273 62.813091-52.875636 106.123636-98.699637 106.123636L245.480727 721.454545" p-id="5624"></path></svg>